<svg xmlns="http://www.w3.org/2000/svg">
  <defs>
    <symbol id="home" viewBox="0 0 24 24">
      <path d="M10 20v-6h4v6h5v-8h3L12 3 2 12h3v8z" />
    </symbol>
    <symbol id="search" viewBox="0 0 24 24">
      <path
        d="M15.5 14h-.79l-.28-.27A6.47 6.47 0 0 0 16 9.5 6.5 6.5 0 1 0 9.5 16c1.61 0 3.09-.59 4.23-1.57l.27.28v.79l5 4.99L20.49 19l-4.99-5zm-6 0C7.01 14 5 11.99 5 9.5S7.01 5 9.5 5 14 7.01 14 9.5 11.99 14 9.5 14z" />
    </symbol>
    <symbol id="settings" viewBox="0 0 24 24">
      <path
        d="M19.14 12.94c.04-.3.06-.61.06-.94 0-.32-.02-.64-.07-.94l2.03-1.58a.49.49 0 0 0 .12-.61l-1.92-3.32a.49.49 0 0 0-.59-.22l-2.39.96c-.5-.38-1.03-.7-1.62-.94l-.36-2.54a.484.484 0 0 0-.48-.41h-3.84c-.24 0-.43.17-.47.41l-.36 2.54c-.59.24-1.13.57-1.62.94l-2.39-.96a.49.49 0 0 0-.59.22L2.74 8.87c-.12.21-.08.47.12.61l2.03 1.58c-.05.3-.07.62-.07.94s.02.64.07.94l-2.03 1.58a.49.49 0 0 0-.12.61l1.92 3.32c.12.22.37.29.59.22l2.39-.96c.5.38 1.03.7 1.62.94l.36 2.54c.05.24.24.41.48.41h3.84c.24 0 .44-.17.47-.41l.36-2.54c.59-.24 1.13-.56 1.62-.94l2.39.96c.22.08.47 0 .59-.22l1.92-3.32c.12-.22.07-.47-.12-.61l-2.01-1.58zM12 15.6A3.6 3.6 0 1 1 12 8.4a3.6 3.6 0 0 1 0 7.2z" />
    </symbol>
    <symbol id="favorite" viewBox="0 0 24 24">
      <path
        d="M12 21.35l-1.45-1.32C5.4 15.36 2 12.28 2 8.5 2 5.42 4.42 3 7.5 3c1.74 0 3.41.81 4.5 2.09C13.09 3.81 14.76 3 16.5 3 19.58 3 22 5.42 22 8.5c0 3.78-3.4 6.86-8.55 11.54L12 21.35z" />
    </symbol>
    <symbol id="arrow-forward" viewBox="0 0 24 24">
      <path d="M12 4l-1.41 1.41L16.17 11H4v2h12.17l-5.58 5.59L12 20l8-8z" />
    </symbol>
    <symbol id="close" viewBox="0 0 24 24">
      <path
        d="M19 6.41L17.59 5 12 10.59 6.41 5 5 6.41 10.59 12 5 17.59 6.41 19 12 13.41 17.59 19 19 17.59 13.41 12z" />
    </symbol>
    <symbol id="check" viewBox="0 0 24 24">
      <path d="M9 16.17L4.83 12l-1.42 1.41L9 19 21 7l-1.41-1.41z" />
    </symbol>
    <symbol id="add" viewBox="0 0 24 24">
      <path d="M19 13h-6v6h-2v-6H5v-2h6V5h2v6h6z" />
    </symbol>
    <symbol id="delete" viewBox="0 0 24 24">
      <path d="M6 19c0 1.1.9 2 2 2h8c1.1 0 2-.9 2-2V7H6v12zM19 4h-3.5l-1-1h-5l-1 1H5v2h14V4z" />
    </symbol>
    <symbol id="info" viewBox="0 0 24 24">
      <path
        d="M12 2C6.48 2 2 6.48 2 12s4.48 10 10 10 10-4.48 10-10S17.52 2 12 2zm1 15h-2v-6h2v6zm0-8h-2V7h2v2z" />
    </symbol>
    <symbol id="arrow-up-right-sm" viewBox="0 0 24 24">
      <path d="M9.22353 8L15.9059 8.09412M15.9059 8.09412L16 14.7765M15.9059 8.09412L8 16"
        stroke-width="2" stroke-linecap="round" stroke-linejoin="round" />
    </symbol>
    <symbol id="arrow-up-right" viewBox="0 0 24 24">
      <path
        d="M8.45802 7.0808L16.98 7.08068M16.98 7.08068L16.98 15.4815M16.98 7.08068L7.08052 16.9802"
        stroke-width="2" stroke-linecap="round" stroke-linejoin="round" />
    </symbol>
    <symbol id="heart" viewBox="0 0 24 24">
      <path fill-rule="evenodd" clip-rule="evenodd"
        d="M3.8065 6.20659C4.70663 5.30673 5.92731 4.80122 7.2001 4.80122C8.47288 4.80122 9.69356 5.30673 10.5937 6.20659L12.0001 7.61179L13.4065 6.20659C13.8493 5.74815 14.3789 5.38247 14.9646 5.13091C15.5502 4.87934 16.18 4.74693 16.8174 4.74139C17.4547 4.73585 18.0868 4.8573 18.6767 5.09865C19.2666 5.34 19.8025 5.69641 20.2532 6.1471C20.7039 6.59778 21.0603 7.13371 21.3016 7.72361C21.543 8.31352 21.6644 8.94558 21.6589 9.58292C21.6534 10.2203 21.5209 10.8501 21.2694 11.4357C21.0178 12.0214 20.6521 12.551 20.1937 12.9938L12.0001 21.1886L3.8065 12.9938C2.90664 12.0937 2.40112 10.873 2.40112 9.60019C2.40112 8.32741 2.90664 7.10673 3.8065 6.20659V6.20659Z"
        stroke-width="2" stroke-linejoin="round" />
    </symbol>
  </defs>
</svg>
